ply
format ascii 1.0
comment VCGLIB generated
element vertex 259
property float x
property float y
property float z
property float nx
property float ny
property float nz
property uchar red
property uchar green
property uchar blue
property uchar alpha
property float texture_u
property float texture_v
element face 362
property list uchar int vertex_indices
end_header
-4.952907 -1.96069 -5.585441 -0.6806515 0.5519096 -0.4817772 255 255 255 255 0.4842065 0.6805609
-3.808979 0.06025148 -4.630501 -0.7208943 0.4935825 -0.4865056 255 255 255 255 0.4676275 0.5801189
-3.203864 0.2968743 -5.693077 -0.6087174 0.5445467 -0.5770027 255 255 255 255 0.5117299 0.5676692
-3.891449 -1.96069 -6.628358 -0.5138456 0.5077559 -0.6914816 255 255 255 255 0.54941 0.6631145
1.366658 -1.96069 8.495208 0.1046144 0.7257761 0.6799302 255 255 255 255 0.07541872 0.1057465
1.088706 0.05032453 6.372296 0.1808833 0.541519 0.8209985 255 255 255 255 0.1761798 0.1835955
-0.0002573016 -0.005079383 6.504247 0.02309784 0.5571507 0.8300901 255 255 255 255 0.1492548 0.219507
0.0001207726 -1.96069 8.655581 -0.03261368 0.7384077 0.6735654 255 255 255 255 0.03884911 0.1580777
3.891677 -1.96069 -6.628759 0.4996687 0.5371721 -0.6795421 255 255 255 255 0.732977 0.3438449
2.91135 0.08514149 -5.337286 0.5887586 0.420834 -0.6901174 255 255 255 255 0.6304229 0.3580207
4.095323 0.2418551 -4.863606 0.6088416 0.4776612 -0.6333654 255 255 255 255 0.6212673 0.3137987
4.953138 -1.96069 -5.585724 0.6917086 0.5506188 -0.4672881 255 255 255 255 0.7140894 0.2774548
-1.366418 -1.766502 -7.87669 -0.2004568 0.5679809 -0.7982574 255 255 255 255 0.6553764 0.5854855
-1.063325 0.2240377 -6.451577 -0.2252186 0.531216 -0.8167535 255 255 255 255 0.5783019 0.5156632
-2.163584e-06 0.2974058 -6.66996 -0.08847428 0.5842096 -0.806766 255 255 255 255 0.6013246 0.480591
0.0001184902 -1.715019 -8.037063 -0.02534309 0.5452591 -0.8378844 255 255 255 255 0.6921042 0.531984
-7.070659 -1.96069 2.680004 -0.7545941 0.6316595 0.1777468 255 255 255 255 0.1225919 0.5706137
-5.552881 -0.07377479 1.845747 -0.7250388 0.6471382 0.2356498 255 255 255 255 0.2093544 0.5042989
-5.969847 0.02944493 -0.1282986 -0.6867874 0.7258101 0.03902323 255 255 255 255 0.2738539 0.55356
-7.227606 -1.96069 0.338294 -0.8291815 0.5588432 -0.01234403 255 255 255 255 0.2079301 0.6284043
5.824256 -1.96069 -4.313604 0.6888628 0.5993637 -0.4077145 255 255 255 255 0.6829271 0.2151519
4.462188 -0.06754555 -3.632022 0.8179934 0.4160954 -0.3971794 255 255 255 255 0.6016627 0.2694575
5.042348 -0.08989792 -2.805019 0.7808326 0.3654093 -0.5067312 255 255 255 255 0.5807716 0.2371295
6.49175 -1.96069 -3.398406 0.6474587 0.6472461 -0.4023303 255 255 255 255 0.6582856 0.1728817
5.498836 -0.2655328 -2.170794 0.8013823 0.498012 -0.3313164 255 255 255 255 0.5671378 0.2079417
6.98104 -1.96069 -2.709826 0.7347305 0.6504524 -0.1925692 255 255 255 255 0.639423 0.1424034
-6.494941 -1.96069 4.038753 -0.6583486 0.6789185 0.3250336 255 255 255 255 0.07991304 0.5208124
-5.057106 0.07544772 2.621614 -0.712898 0.5928749 0.3745341 255 255 255 255 0.1906362 0.4712947
-5.741745 0.0527611 -1.996394 -0.6614827 0.7395047 -0.124794 255 255 255 255 0.3419176 0.5810605
-6.995214 -1.96069 -2.610961 -0.7657511 0.5706902 -0.2965434 255 255 255 255 0.3257507 0.6811545
-5.162177 0.157636 -2.807386 -0.6627717 0.640382 -0.3881295 255 255 255 255 0.3805691 0.579188
-6.474392 -1.96069 -3.606254 -0.6367109 0.6018224 -0.4820882 255 255 255 255 0.3746547 0.6872723
-4.459598 -0.01093529 -3.627357 -0.6832483 0.5166335 -0.5160053 255 255 255 255 0.4223613 0.5834057
-5.824023 -1.96069 -4.532722 -0.6272138 0.6160728 -0.4765052 255 255 255 255 0.423947 0.6869296
1.366645 -1.746237 -7.876647 0.2486487 0.5034041 -0.8275011 255 255 255 255 0.717515 0.4722834
1.120495 0.3806793 -6.681944 0.1176506 0.6394697 -0.7597611 255 255 255 255 0.6200231 0.4423379
2.1785 0.3495428 -6.263637 0.4231488 0.5648078 -0.7084754 255 255 255 255 0.6294432 0.4009859
2.680667 -1.943666 -7.401566 0.5211781 0.5255477 -0.6724381 255 255 255 255 0.7350185 0.4095854
-2.121068 0.2689584 -6.15001 -0.3418862 0.5395359 -0.7694251 255 255 255 255 0.5480058 0.5441782
-2.68044 -1.96069 -7.401697 -0.3300808 0.5335482 -0.7786995 255 255 255 255 0.6095766 0.6332927
-1.088062 -0.004783232 6.368149 -0.1743814 0.5674961 0.8046982 255 255 255 255 0.1319086 0.2614175
-1.366417 -1.96069 8.49521 -0.2078291 0.7426669 0.6365949 255 255 255 255 0.01402288 0.2167203
5.85538 -0.2195913 -0.1251457 0.8279942 0.557756 -0.05773997 255 255 255 255 0.5008162 0.1559614
7.227843 -1.96069 0.33851 0.7735335 0.6337272 0.005981242 255 255 255 255 0.5329095 0.06501722
0.2830357 1.555375 5.918083 -0.06863943 0.8951346 0.44048 255 255 255 255 0.2117576 0.2415893
-0.7265604 1.589084 5.796526 0.00971204 0.9990988 0.04131901 255 255 255 255 0.1954995 0.2728988
5.63897 -0.01070715 -0.2090622 0.5590367 0.825547 -0.07713728 255 255 255 255 0.4976607 0.1681932
5.425584 0.0271382 -2.049988 0.5274268 0.8443018 -0.09473915 255 255 255 255 0.5557932 0.2144345
0.1846547 0.2044312 -1.372521 0.05086354 0.9983122 0.02803065 255 255 255 255 0.4342508 0.3723643
0.190012 0.5358101 -0.1695797 0.03732325 0.9932266 -0.1100355 255 255 255 255 0.3940359 0.3503507
-4.977748 0.5318059 -1.979725 -0.2675105 0.9619691 -0.05525907 255 255 255 255 0.3587642 0.5507601
-5.215041 0.2285364 -0.2089762 -0.2603317 0.9635931 -0.06095779 255 255 255 255 0.2913431 0.5274851
-5.049078 0.6760687 1.682899 -0.3309812 0.9383632 -0.09962983 255 255 255 255 0.2336233 0.4772112
0.2034583 0.7663932 1.029058 0.01610087 0.9737338 -0.2271192 255 255 255 255 0.3554392 0.3274565
5.530153 0.2987167 1.771618 0.6181133 0.7805918 0.09280273 255 255 255 255 0.4220484 0.1410132
5.541129 -0.03447174 1.996586 0.8496109 0.5006276 0.1659317 255 255 255 255 0.4188733 0.1248353
-4.629742 0.6592768 -2.819321 -0.1316963 0.9912252 0.01134901 255 255 255 255 0.3937594 0.5542386
0.1558165 0.7377007 -6.317159 -0.005183348 0.9982291 -0.05926096 255 255 255 255 0.5850171 0.4645284
-0.8565295 0.8148598 -6.197281 -0.04131186 0.8608481 -0.5071825 255 255 255 255 0.5627525 0.4957188
-1.826451 0.9100294 -5.84633 -0.1205547 0.8685023 -0.4808017 255 255 255 255 0.5357464 0.5198088
-2.723128 0.9512588 -5.277983 -0.2744341 0.8947755 -0.3522254 255 255 255 255 0.5043037 0.5370617
-3.515159 0.8798272 -4.526899 -0.4910572 0.8339097 -0.2519078 255 255 255 255 0.46836 0.5482728
-4.182901 0.7570145 -3.619001 -0.6615434 0.628311 -0.4093722 255 255 255 255 0.4281995 0.5535337
-4.580739 0.9277048 2.492586 -0.5076603 0.8571252 0.0872784 255 255 255 255 0.2177036 0.4445524
-4.0695 1.161023 3.222945 -0.5236078 0.8332989 0.1773355 255 255 255 255 0.2059484 0.4126988
-3.423381 1.411301 4.174446 -0.5404599 0.7974282 0.2683493 255 255 255 255 0.1908991 0.3739291
-2.610937 1.588462 4.892835 -0.4624958 0.8252213 0.3242028 255 255 255 255 0.1854622 0.3395229
-1.703687 1.606655 5.448987 -0.3113784 0.6500149 0.6931986 255 255 255 255 0.1869292 0.3057342
5.102878 0.7269835 2.530947 0.2507831 0.9515749 -0.1778009 255 255 255 255 0.3852826 0.1472427
5.065918 0.2305123 2.666749 0.8061412 0.4381099 0.3977387 255 255 255 255 0.3841361 0.127783
-2.680439 -1.96069 8.020255 -0.2785206 0.7266636 0.6280018 255 255 255 255 0.002585603 0.2802751
-2.086509 -0.05998147 5.895748 -0.331845 0.5627585 0.7570877 255 255 255 255 0.1245556 0.3056127
-3.161489 0.0994712 5.466371 -0.4793546 0.565027 0.6715384 255 255 255 255 0.1274889 0.3519665
-3.891448 -1.96069 7.249011 -0.5158548 0.7069672 0.4838298 255 255 255 255 0.00625872 0.3477057
7.046071 -1.96069 2.907895 0.7250465 0.653296 0.2179724 255 255 255 255 0.4317381 0.01249931
5.027064 0.1979917 -2.822001 0.6871057 0.65852 -0.3069808 255 255 255 255 0.5723863 0.2445845
4.520204 0.3748345 -3.586592 0.6971279 0.6517235 -0.2987797 255 255 255 255 0.586624 0.2760892
3.871103 0.5074877 -4.536532 0.5462506 0.7958534 -0.2612045 255 255 255 255 0.6034967 0.3150086
3.062876 0.6717554 -5.286921 0.4044721 0.7656765 -0.5001417 255 255 255 255 0.6106215 0.3543923
2.153354 0.7128525 -5.854806 0.3879437 0.8117691 -0.4364983 255 255 255 255 0.6106871 0.3921332
1.172496 0.7133558 -6.202716 0.1253413 0.8716862 -0.4737644 255 255 255 255 0.6019691 0.4299181
2.68068 -1.96069 8.020252 0.2430274 0.6917254 0.6800395 255 255 255 255 0.1241253 0.06166309
2.174085 0.1638614 6.078906 0.3482747 0.5289781 0.7738779 255 255 255 255 0.2102604 0.1535113
-3.705175 -0.1186098 4.367138 -0.689379 0.5298028 0.49403 255 255 255 255 0.142772 0.3980807
-4.952907 -1.96069 6.213415 -0.5370552 0.7105675 0.454605 255 255 255 255 0.02338762 0.4132212
-4.532317 0.1328486 3.508823 -0.658759 0.5565616 0.5062369 255 255 255 255 0.1685441 0.4364888
-5.824023 -1.96069 4.954698 -0.5802506 0.696587 0.4219903 255 255 255 255 0.05558305 0.4772685
3.891689 -1.96069 7.248981 0.4337184 0.6455581 0.6286041 255 255 255 255 0.1833063 0.02819404
3.224918 0.2591129 5.549301 0.5747861 0.4965388 0.6504385 255 255 255 255 0.2509813 0.1309796
6.493788 -1.96069 4.051214 0.6889942 0.6366404 0.3463755 255 255 255 255 0.3746345 0.002585603
4.953147 -1.96069 6.213449 0.6038812 0.6110265 0.5118341 255 255 255 255 0.2506668 0.007562897
4.014987 0.2245361 4.62994 0.7111333 0.472368 0.5207282 255 255 255 255 0.2968719 0.1199103
5.824263 -1.96069 4.954769 0.6630906 0.6133116 0.4291385 255 255 255 255 0.3233954 0.002585646
4.714937 0.240796 3.633717 0.7784173 0.4563218 0.4310881 255 255 255 255 0.3446144 0.120232
1.294626 1.595956 5.797303 0.04255335 0.8198459 0.5710009 255 255 255 255 0.2301587 0.2112292
2.264511 1.600445 5.452209 0.1851945 0.8347178 0.5186031 255 255 255 255 0.2529911 0.1877212
3.160851 1.545818 4.900049 0.3737596 0.8327144 0.4085223 255 255 255 255 0.2798964 0.1703875
3.955368 1.309276 4.182439 0.547994 0.7953174 0.2591773 255 255 255 255 0.3114987 0.1585682
4.575777 0.9784707 3.235566 0.7528269 0.5760732 0.3184203 255 255 255 255 0.3521106 0.1523692
-2.722811 -0.3106281 -3.871191 -0.7767112 0.4362936 -0.454277 255 255 255 255 0.7903785 0.7905197
-2.130782 1.140318 -3.273057 -0.7914482 0.3967622 -0.464962 255 255 255 255 0.7171341 0.8397407
-1.843846 1.268474 -4.021663 -0.6069299 0.4021606 -0.6854947 255 255 255 255 0.6980551 0.8123444
-2.126647 -0.3106281 -4.587668 -0.5213916 0.4667442 -0.7143533 255 255 255 255 0.7519298 0.7424991
0.8265468 -0.3106281 5.802118 0.05050353 0.7411693 0.6694158 255 255 255 255 0.2667176 0.692008
0.6482126 1.011943 4.25593 0.07110924 0.525691 0.8476983 255 255 255 255 0.2391507 0.7908441
0.06017463 0.9689237 4.342346 0.0007648816 0.5518994 0.8339104 255 255 255 255 0.2143761 0.7838325
0.05903693 -0.3106281 5.912294 -0.01647836 0.7678194 0.6404544 255 255 255 255 0.2234459 0.681435
2.244714 -0.3106281 -4.587944 0.6555319 0.4746943 -0.5873187 255 255 255 255 0.4771739 0.757906
1.757159 1.188305 -3.813047 0.6932746 0.3233993 -0.6440367 255 255 255 255 0.5399885 0.8203213
2.296046 1.135674 -3.305992 0.8160616 0.3075542 -0.4893403 255 255 255 255 0.523025 0.8454535
2.840878 -0.3106281 -3.871385 0.7644597 0.5150945 -0.3876584 255 255 255 255 0.447154 0.8084414
-0.708474 -0.1772223 -5.445263 -0.1501714 0.4819514 -0.8632331 255 255 255 255 0.6570196 0.6996036
-0.6509123 1.393884 -4.848507 -0.2834724 0.4484418 -0.8476694 255 255 255 255 0.6417964 0.7836804
0.05905202 1.231388 -4.597325 0.1192244 0.406764 -0.9057199 255 255 255 255 0.6116029 0.7806571
0.05903565 -0.1418539 -5.555438 0.1057542 0.5247799 -0.8446432 255 255 255 255 0.6090146 0.6965606
3.944442 -0.3106281 1.447405 0.8856391 0.4616132 -0.05056357 255 255 255 255 0.3685287 0.9732105
3.198424 1.172858 1.325163 0.9393224 0.323821 -0.1131959 255 255 255 255 0.3016221 0.9344633
3.0138 1.274863 1.863659 0.8497403 0.3558047 0.3890301 255 255 255 255 0.3069794 0.9112273
3.706178 -0.3106281 2.749125 0.7338293 0.5576525 0.3879668 255 255 255 255 0.3954776 0.8959373
3.330137 -0.3106281 -2.997447 0.7368838 0.5824785 -0.343105 255 255 255 255 0.4336407 0.8713463
2.481098 0.9994437 -2.508559 0.8789786 0.2959643 -0.3739009 255 255 255 255 0.5153857 0.8768766
2.777989 0.9626125 -1.934763 0.8393964 0.3246992 -0.4358717 255 255 255 255 0.5158795 0.9008867
3.705033 -0.3106281 -2.368713 0.7512699 0.5924346 -0.2908864 255 255 255 255 0.4366875 0.9168115
2.852037 2.410197 1.66023 0.8987219 0.180571 0.3996162 255 255 255 255 0.2763379 0.9085485
2.93123 2.410197 1.479129 0.9568216 0.2044429 -0.2066292 255 255 255 255 0.27698 0.9126044
3.597396 -0.3106281 1.050041 0.3498852 0.03023239 -0.9363046 255 255 255 255 0.3465942 0.9903215
-3.500152 -0.3106281 0.9751772 -0.5612481 0.2028866 -0.8023949 255 255 255 255 0.06278644 0.9908394
-2.773908 1.091122 0.5633496 -0.5649455 0.2882418 -0.7731451 255 255 255 255 0.1272967 0.9495608
2.829697 1.067244 0.8514692 0.2471374 0.2244377 -0.9426298 255 255 255 255 0.286474 0.9510744
3.589153 -0.3106281 -1.005291 0.3435037 0.09991997 0.9338208 255 255 255 255 0.4871838 0.9862087
2.916335 1.003908 -0.6025082 0.3913217 0.5118015 0.764805 255 255 255 255 0.543704 0.9429827
-2.649671 0.9691204 -1.005995 -0.2833524 0.2485889 0.926237 255 255 255 255 0.7127905 0.9452103
-3.436487 -0.3106281 -0.9728191 -0.4088612 0.2301458 0.8830999 255 255 255 255 0.7755441 0.9852471
-3.577347 -0.3106281 -2.511503 -0.7910683 0.5583431 -0.2499281 255 255 255 255 0.8196688 0.8907136
-2.623051 1.040854 -1.889322 -0.8709591 0.3739138 -0.318777 255 255 255 255 0.7283467 0.8990552
-2.545277 1.12869 -2.601683 -0.8425621 0.3955072 -0.3655998 255 255 255 255 0.7276411 0.8703851
-3.21207 -0.3106281 -3.14798 -0.7568443 0.5246557 -0.3897732 255 255 255 255 0.8128471 0.8439604
0.8265393 -0.1633004 -5.445233 0.2343928 0.5058129 -0.8301888 255 255 255 255 0.5621881 0.7043037
0.6763901 1.241555 -4.55309 0.1886572 0.4282396 -0.8837529 255 255 255 255 0.5869038 0.7860192
1.342548 1.297552 -4.412891 0.5149012 0.3780283 -0.7693968 255 255 255 255 0.5615122 0.7989185
1.564555 -0.2989326 -5.118856 0.5576193 0.4621156 -0.6895723 255 255 255 255 0.5162065 0.7227194
-1.076607 1.178954 -4.175084 -0.5229596 0.4137663 -0.7451918 255 255 255 255 0.6722234 0.7938585
-1.446489 -0.3106281 -5.118946 -0.5673527 0.4363739 -0.6983472 255 255 255 255 0.7072121 0.7104397
-0.5386834 0.9980598 4.292433 -0.1579912 0.5678384 0.8078356 255 255 255 255 0.1881875 0.7864047
-0.7084732 -0.3106281 5.80212 -0.1383521 0.7399748 0.6582522 255 255 255 255 0.178578 0.6831699
2.833508 2.410197 -1.788477 0.9555682 0.06479882 -0.2875597 255 255 255 255 0.5531682 0.8963811
3.034577 0.9392264 -1.545616 0.9275049 0.3723155 -0.0334062 255 255 255 255 0.5196201 0.9202341
2.759883 2.410197 -1.934372 0.88424 0.007019034 -0.46698 255 255 255 255 0.5538974 0.8926184
0.182228 2.410197 1.488228 0.0003170485 0.9925439 -0.1218869 255 255 255 255 0.8110407 0.1320348
0.2237888 2.410197 3.934127 0 1 0 255 255 255 255 0.715206 0.1319116
0.7755613 2.410197 3.847765 0 1 0 255 255 255 255 0.7182341 0.1102599
1.303902 2.410197 3.617654 0 1 0 255 255 255 255 0.7269036 0.08943348
1.797025 2.410197 3.259698 0 1 0 255 255 255 255 0.7405995 0.06990387
2.245901 2.410197 2.82322 0 1 0 255 255 255 255 0.7573971 0.05205603
-2.505691 2.410197 1.454012 0.00419857 0.9458469 -0.3245858 255 255 255 255 0.8138963 0.2373014
-2.422156 2.410197 1.639281 0 1 0 255 255 255 255 0.8065948 0.2341349
-2.149487 2.410197 2.126848 0 1 0 255 255 255 255 0.7873522 0.2237357
-1.818258 2.410197 2.816918 0 1 0 255 255 255 255 0.7601454 0.2111796
-1.446488 -0.3106281 5.475829 -0.3305233 0.6748676 0.6597789 255 255 255 255 0.1330509 0.6984987
-1.177389 1.09515 4.145056 -0.3287234 0.5744202 0.7496549 255 255 255 255 0.1606895 0.7971851
-1.802206 1.165018 3.796085 -0.5525191 0.5415715 0.6335796 255 255 255 255 0.1350917 0.816512
-2.126647 -0.3106281 4.94599 -0.5744607 0.5927852 0.5644472 255 255 255 255 0.08911807 0.7275535
-2.453206 2.410197 -1.932802 -0.8749856 0.1467782 -0.4613636 255 255 255 255 0.6874905 0.8925776
-3.011986 1.061572 -1.413734 -0.909638 0.4149693 0.01895155 255 255 255 255 0.7273006 0.9266151
-2.506813 2.410197 -1.763273 -0.9256805 0.3389534 0.1680071 255 255 255 255 0.6880121 0.8974808
1.564562 -0.3106281 5.475827 0.19943 0.6622117 0.7222904 255 255 255 255 0.3077637 0.7164127
1.390041 1.265579 4.314008 0.3125929 0.5262495 0.7907889 255 255 255 255 0.2675785 0.8078738
-2.251624 1.170009 3.174649 -0.6614615 0.5175624 0.5427687 255 255 255 255 0.1166753 0.8440352
-2.722811 -0.3106281 4.234542 -0.6602674 0.5223288 0.5396478 255 255 255 255 0.04975242 0.7717541
-2.825316 1.363504 2.58519 -0.779013 0.497532 0.3815766 255 255 255 255 0.1080838 0.8776819
-3.21207 -0.3106281 3.369812 -0.8188838 0.4564594 0.3479571 255 255 255 255 0.0225447 0.8320189
-2.897178 1.210873 1.827536 -0.9093192 0.4091162 0.07591189 255 255 255 255 0.1055102 0.9080147
-3.588888 -0.3106281 2.740564 -0.8652905 0.494029 0.08489838 255 255 255 255 0.0130057 0.8783342
2.24472 -0.3106281 4.945968 0.6103007 0.55156 0.5686076 255 255 255 255 0.3449742 0.7505926
1.932757 1.236118 3.809772 0.6753644 0.4601482 0.5763216 255 255 255 255 0.2889872 0.8302661
3.895872 -0.3106281 -1.423148 0.7861112 0.5988232 0.1531007 255 255 255 255 0.4624541 0.9711269
2.840884 -0.3106281 4.234565 0.7157879 0.5594186 0.4179696 255 255 255 255 0.3748223 0.7968842
2.25477 1.146767 3.090694 0.7933019 0.393042 0.4649626 255 255 255 255 0.3034615 0.8580574
3.330142 -0.3106281 3.369861 0.6843371 0.5927613 0.4246372 255 255 255 255 0.391846 0.8542564
2.63245 1.150473 2.404965 0.7878122 0.3794481 0.4851507 255 255 255 255 0.3097682 0.8867965
1.24154 2.410197 -3.954463 0.4313172 0.3103577 -0.8471385 255 255 255 255 0.5831161 0.8356284
0.7096118 2.410197 -4.185084 0.152474 0.3003401 -0.9415666 255 255 255 255 0.5969216 0.8269514
2.531957 2.410197 -2.439398 0.9282483 0.03626673 -0.3701889 255 255 255 255 0.5568197 0.8807512
2.189482 2.410197 -3.098088 0.7989738 0.1262721 -0.5879595 255 255 255 255 0.5620654 0.8633931
-2.505691 2.410197 1.454012 -0.9590336 0.2546336 -0.1241622 255 255 255 255 0.1443451 0.9093425
-2.793977 0.9998862 1.274879 -0.9101687 0.3959501 -0.121723 255 255 255 255 0.1103673 0.9322731
-2.422156 2.410197 1.639281 -0.9012765 0.4250477 0.08387608 255 255 255 255 0.1452845 0.9043649
-2.382433 2.02369 1.035969 -0.5598111 0.4375913 -0.7036516 255 255 255 255 0.1447278 0.9236612
0.1759784 2.023299 1.070956 0.01128665 0.2715298 -0.9623638 255 255 255 255 0.2133475 0.9240198
2.245901 2.410197 2.82322 0.8647438 0.1571469 0.4769937 255 255 255 255 0.2681053 0.8787302
2.56608 2.410197 2.134339 0.8370746 0.1658798 0.5213348 255 255 255 255 0.2726631 0.896371
1.303902 2.410197 3.617654 0.4219495 0.433779 0.7961121 255 255 255 255 0.2468426 0.8513366
1.797025 2.410197 3.259698 0.75093 0.2966976 0.5899786 255 255 255 255 0.2586358 0.8641441
0.7755613 2.410197 3.847765 0.07510845 0.3530295 0.9325926 255 255 255 255 0.2330514 0.8422918
0.2237888 2.410197 3.934127 0.05571406 0.2747805 0.9598915 255 255 255 255 0.2177433 0.8378901
-0.3234864 2.410197 3.849305 -0.1559678 0.3219846 0.9338094 255 255 255 255 0.2018052 0.8384612
-0.8577788 2.410197 3.617528 -0.3266075 0.4004418 0.8561389 255 255 255 255 0.1852384 0.845109
-1.35728 2.410197 3.253031 -0.5343661 0.4581128 0.7103419 255 255 255 255 0.1698179 0.8563006
-1.818258 2.410197 2.816918 -0.6712055 0.4722797 0.571345 255 255 255 255 0.1568125 0.8703647
-2.149487 2.410197 2.126848 -0.739985 0.516486 0.4308879 255 255 255 255 0.1491126 0.8904988
-3.840456 -0.3106281 1.363699 -0.7960678 0.570924 -0.2008032 255 255 255 255 0.0374644 0.9741286
2.669982 2.025172 -1.340361 0.4473569 0.5426446 0.710921 255 255 255 255 0.5562279 0.9091318
0.1614273 2.028714 -1.347351 -0.01703837 0.5179754 0.8552258 255 255 255 255 0.6158791 0.9112986
-2.193854 2.410197 -2.513633 -0.9211397 0.2144058 -0.3248566 255 255 255 255 0.6830402 0.8763779
-1.858781 2.410197 -3.096431 -0.8284783 0.2879972 -0.480293 255 255 255 255 0.6749093 0.8583366
-1.414257 2.410197 -3.579075 -0.6937013 0.3632515 -0.6219541 255 255 255 255 0.6621555 0.8423731
-0.9188953 2.410197 -3.954508 -0.4659907 0.3522325 -0.8116557 255 255 255 255 0.6463892 0.8302716
-0.3913862 2.410197 -4.184792 -0.4368627 0.4168793 -0.7970964 255 255 255 255 0.6293105 0.8236076
0.1579728 2.410197 -4.261056 0.1492232 0.3506215 -0.9245523 255 255 255 255 0.6122403 0.8227844
1.738342 2.410197 -3.579238 0.7169782 0.2062763 -0.6658771 255 255 255 255 0.5713212 0.8485543
1.738342 2.410197 -3.579238 0 1 0 255 255 255 255 0.7699646 0.6820056
0.1595026 2.410197 -1.813826 0.001384414 0.9909692 0.1340823 255 255 255 255 0.8387746 0.6196953
2.833508 2.410197 -1.788477 -0.001795638 0.9738488 0.2271899 255 255 255 255 0.8403149 0.7244527
2.759883 2.410197 -1.934372 0 1 0 255 255 255 255 0.834587 0.7215996
2.531957 2.410197 -2.439398 0 1 0 255 255 255 255 0.814769 0.7127818
2.189482 2.410197 -3.098088 0 1 0 255 255 255 255 0.7889062 0.6995421
-1.858781 2.410197 -3.096431 0 1 0 255 255 255 255 0.7878267 0.5410337
-2.193854 2.410197 -2.513633 0 1 0 255 255 255 255 0.8105274 0.527736
-2.453206 2.410197 -1.932802 0 1 0 255 255 255 255 0.8331721 0.5173759
-2.506813 2.410197 -1.763273 0.004371496 0.9748015 0.2230313 255 255 255 255 0.8397908 0.5152156
-3.742119 -0.3106281 1.110483 -0.8143719 0.5347499 -0.2254791 255 255 255 255 0.04857095 0.9847463
-2.76158 0.9821783 1.166901 -0.8761504 0.4246921 -0.2280287 255 255 255 255 0.1126042 0.9358705
3.812961 -0.3106281 -1.152738 0.8160245 0.5326036 0.2245828 255 255 255 255 0.4731685 0.9811497
2.935655 0.8756765 -1.318863 0.885558 0.3820916 0.2641838 255 255 255 255 0.5246657 0.9285267
-3.793787 -0.3106281 -1.371515 -0.8198218 0.5718331 -0.02998499 255 255 255 255 0.7983338 0.9648376
-3.69075 -0.3106281 -1.112398 -0.6710705 0.4465972 0.59179 255 255 255 255 0.7890886 0.9765912
-2.842519 0.9661674 -1.202534 -0.669769 0.3964545 0.62788 255 255 255 255 0.7218438 0.9377955
3.843777 -0.3106281 1.191059 0.7342901 0.3501365 -0.581569 255 255 255 255 0.3589503 0.9830471
3.03257 1.085324 1.089316 0.7439736 0.2585824 -0.6161481 255 255 255 255 0.2956289 0.9439182
0.1614273 2.028714 -1.347351 0.003150624 0.6026657 0.7979876 255 255 255 255 0.8630369 0.6196296
2.669982 2.025172 -1.340361 -0.003542904 0.5962614 0.8027825 255 255 255 255 0.8640808 0.7178854
2.832821 2.27483 -1.518362 -0.003617298 0.7141122 0.700022 255 255 255 255 0.8521357 0.7243536
0.1602493 2.276075 -1.537794 0.005317058 0.7739444 0.6332312 255 255 255 255 0.8508019 0.6196424
2.832821 2.27483 -1.518362 0.9561272 0.1677894 0.2401408 255 255 255 255 0.5553813 0.9016953
2.899359 2.273676 1.230283 0.7186186 0.203973 -0.6648175 255 255 255 255 0.2743435 0.9173149
2.70901 2.02189 1.072211 0.1879068 0.2289173 -0.9551377 255 255 255 255 0.2718375 0.9241568
2.93123 2.410197 1.479129 -0.0003084917 0.9925011 -0.1222352 255 255 255 255 0.8095655 0.02435317
2.899359 2.273676 1.230283 -0.000998896 0.7877974 -0.6159337 255 255 255 255 0.8206991 0.0254163
0.178236 2.274172 1.235901 0.003653839 0.7349879 -0.6780704 255 255 255 255 0.8222734 0.1320081
2.70901 2.02189 1.072211 -0.0005024733 0.5407499 -0.8411833 255 255 255 255 0.8324537 0.03267924
0.1759784 2.023299 1.070956 0.007295506 0.5478616 -0.8365372 255 255 255 255 0.8340369 0.1318837
-2.382433 2.02369 1.035969 0.01119413 0.5513901 -0.8341725 255 255 255 255 0.8367831 0.232064
-2.510244 2.274309 1.200827 0.009767729 0.6793653 -0.7337353 255 255 255 255 0.8251445 0.2373014
-2.510244 2.274309 1.200827 -0.9546048 0.2418195 -0.1739339 255 255 255 255 0.1444314 0.9161962
-2.474679 2.276623 -1.485576 0.01145968 0.8245252 0.5657092 255 255 255 255 0.8518652 0.5163844
-2.314049 2.030272 -1.293987 0.01653665 0.6152772 0.7881373 255 255 255 255 0.8640875 0.5226473
-2.474679 2.276623 -1.485576 -0.6505731 0.3616381 0.6678118 255 255 255 255 0.6872642 0.9054328
-2.314049 2.030272 -1.293987 -0.3205211 0.3922995 0.8621875 255 255 255 255 0.6848648 0.9140772
0.7096118 2.410197 -4.185084 0 1 0 255 255 255 255 0.7460003 0.6418962
0.1579728 2.410197 -4.261056 0 1 0 255 255 255 255 0.7428907 0.6203266
1.24154 2.410197 -3.954463 0 1 0 255 255 255 255 0.7551573 0.6626562
-0.3913862 2.410197 -4.184792 0 1 0 255 255 255 255 0.7457007 0.5988039
-0.9188953 2.410197 -3.954508 0 1 0 255 255 255 255 0.7545452 0.5780874
-1.414257 2.410197 -3.579075 0 1 0 255 255 255 255 0.76908 0.5585829
2.56608 2.410197 2.134339 0 1 0 255 255 255 255 0.7841559 0.03908447
2.852037 2.410197 1.66023 0 1 0 255 255 255 255 0.8025273 0.02757453
-1.35728 2.410197 3.253031 0 1 0 255 255 255 255 0.742802 0.1933943
-0.8577788 2.410197 3.617528 0 1 0 255 255 255 255 0.7282389 0.1740588
-0.3234864 2.410197 3.849305 0 1 0 255 255 255 255 0.7188504 0.1532828
3 0 1 2 
3 0 2 3 
3 4 5 6 
3 4 6 7 
3 8 9 10 
3 8 10 11 
3 12 13 14 
3 12 14 15 
3 16 17 18 
3 16 18 19 
3 20 21 22 
3 20 22 23 
3 23 22 24 
3 23 24 25 
3 26 27 17 
3 26 17 16 
3 19 18 28 
3 19 28 29 
3 29 28 30 
3 29 30 31 
3 31 30 32 
3 31 32 33 
3 34 35 36 
3 34 36 37 
3 15 14 35 
3 15 35 34 
3 3 2 38 
3 3 38 39 
3 7 6 40 
3 7 40 41 
3 25 24 42 
3 25 42 43 
3 33 32 1 
3 33 1 0 
3 44 45 40 
3 44 40 6 
3 46 47 48 
3 46 48 49 
3 47 46 42 
3 47 42 24 
3 50 51 49 
3 50 49 48 
3 51 52 53 
3 51 53 49 
3 52 51 18 
3 52 18 17 
3 46 54 55 
3 46 55 42 
3 56 50 48 
3 56 48 57 
3 56 57 58 
3 56 58 59 
3 56 59 60 
3 56 60 61 
3 56 61 62 
3 45 44 53 
3 45 53 52 
3 45 52 63 
3 45 63 64 
3 45 64 65 
3 45 65 66 
3 45 66 67 
3 50 56 30 
3 50 30 28 
3 54 68 69 
3 54 69 55 
3 70 71 72 
3 70 72 73 
3 43 42 55 
3 43 55 74 
3 57 48 47 
3 57 47 75 
3 57 75 76 
3 57 76 77 
3 57 77 78 
3 57 78 79 
3 57 79 80 
3 37 36 9 
3 37 9 8 
3 81 82 5 
3 81 5 4 
3 11 10 21 
3 11 21 20 
3 73 72 83 
3 73 83 84 
3 84 83 85 
3 84 85 86 
3 86 85 27 
3 86 27 26 
3 41 40 71 
3 41 71 70 
3 39 38 13 
3 39 13 12 
3 87 88 82 
3 87 82 81 
3 74 55 69 
3 74 69 89 
3 90 91 88 
3 90 88 87 
3 92 93 91 
3 92 91 90 
3 89 69 93 
3 89 93 92 
3 51 50 28 
3 51 28 18 
3 54 46 49 
3 54 49 53 
3 68 54 53 
3 68 53 44 
3 68 44 94 
3 68 94 95 
3 68 95 96 
3 68 96 97 
3 68 97 98 
3 80 79 36 
3 80 36 35 
3 77 76 21 
3 77 21 10 
3 76 75 22 
3 76 22 21 
3 75 47 24 
3 75 24 22 
3 98 97 91 
3 98 91 93 
3 96 95 82 
3 96 82 88 
3 95 94 5 
3 95 5 82 
3 94 44 6 
3 94 6 5 
3 45 67 71 
3 45 71 40 
3 67 66 72 
3 67 72 71 
3 66 65 83 
3 66 83 72 
3 65 64 85 
3 65 85 83 
3 64 63 27 
3 64 27 85 
3 56 62 32 
3 56 32 30 
3 62 61 1 
3 62 1 32 
3 61 60 2 
3 61 2 1 
3 60 59 38 
3 60 38 2 
3 59 58 13 
3 59 13 38 
3 57 80 35 
3 57 35 14 
3 79 78 9 
3 79 9 36 
3 78 77 10 
3 78 10 9 
3 68 98 93 
3 68 93 69 
3 97 96 88 
3 97 88 91 
3 63 52 17 
3 63 17 27 
3 58 57 14 
3 58 14 13 
3 99 100 101 
3 99 101 102 
3 103 104 105 
3 103 105 106 
3 107 108 109 
3 107 109 110 
3 111 112 113 
3 111 113 114 
3 115 116 117 
3 115 117 118 
3 119 120 121 
3 119 121 122 
3 123 117 116 
3 123 116 124 
3 125 126 127 
3 125 127 128 
3 129 130 131 
3 129 131 132 
3 133 134 135 
3 133 135 136 
3 137 138 139 
3 137 139 140 
3 114 113 138 
3 114 138 137 
3 102 101 141 
3 102 141 142 
3 106 105 143 
3 106 143 144 
3 145 146 121 
3 145 121 147 
3 136 135 100 
3 136 100 99 
3 148 149 150 
3 148 150 151 
3 148 151 152 
3 148 152 153 
3 148 154 155 
3 148 155 156 
3 148 156 157 
3 158 159 160 
3 158 160 161 
3 162 134 163 
3 162 163 164 
3 140 139 108 
3 140 108 107 
3 165 166 104 
3 165 104 103 
3 110 109 120 
3 110 120 119 
3 161 160 167 
3 161 167 168 
3 168 167 169 
3 168 169 170 
3 170 169 171 
3 170 171 172 
3 144 143 159 
3 144 159 158 
3 142 141 112 
3 142 112 111 
3 173 174 166 
3 173 166 165 
3 122 121 146 
3 122 146 175 
3 176 177 174 
3 176 174 173 
3 178 179 177 
3 178 177 176 
3 118 117 179 
3 118 179 178 
3 180 139 138 
3 180 138 181 
3 182 120 109 
3 182 109 183 
3 147 121 120 
3 147 120 182 
3 184 185 171 
3 184 171 186 
3 128 127 187 
3 128 187 188 
3 189 177 179 
3 189 179 190 
3 191 166 174 
3 191 174 192 
3 193 104 166 
3 193 166 191 
3 194 105 104 
3 194 104 193 
3 195 143 105 
3 195 105 194 
3 196 159 143 
3 196 143 195 
3 197 160 159 
3 197 159 196 
3 198 167 160 
3 198 160 197 
3 199 169 167 
3 199 167 198 
3 186 171 169 
3 186 169 199 
3 172 171 185 
3 172 185 200 
3 130 201 202 
3 203 135 134 
3 203 134 162 
3 204 100 135 
3 204 135 203 
3 205 101 100 
3 205 100 204 
3 206 141 101 
3 206 101 205 
3 207 112 141 
3 207 141 206 
3 181 138 113 
3 181 113 208 
3 209 108 139 
3 209 139 180 
3 183 109 108 
3 183 108 209 
3 190 179 117 
3 190 117 123 
3 192 174 177 
3 192 177 189 
3 210 211 212 
3 210 212 213 
3 210 213 214 
3 210 214 215 
3 208 113 112 
3 208 112 207 
3 211 216 217 
3 211 217 218 
3 211 218 219 
3 127 126 220 
3 127 220 221 
3 221 220 200 
3 221 200 185 
3 130 129 222 
3 130 222 223 
3 223 222 175 
3 223 175 146 
3 163 224 225 
3 163 225 226 
3 226 225 132 
3 226 132 131 
3 116 115 227 
3 116 227 228 
3 228 227 125 
3 228 125 128 
3 229 230 231 
3 229 231 232 
3 232 231 212 
3 232 212 211 
3 201 130 223 
3 201 223 233 
3 233 223 146 
3 233 146 145 
3 124 116 228 
3 124 228 234 
3 234 228 128 
3 234 128 235 
3 148 236 237 
3 148 237 238 
3 238 237 239 
3 238 239 240 
3 240 241 242 
3 240 242 238 
3 238 242 154 
3 238 154 148 
3 187 127 221 
3 187 221 243 
3 243 221 185 
3 243 185 184 
3 211 219 244 
3 211 244 232 
3 232 244 245 
3 232 245 229 
3 164 163 226 
3 164 226 246 
3 246 226 131 
3 246 131 247 
3 224 163 134 
3 224 134 133 
3 235 128 188 
3 131 130 202 
3 131 202 247 
3 248 249 211 
3 248 211 210 
3 248 210 250 
3 249 251 252 
3 249 252 253 
3 249 253 216 
3 249 216 211 
3 236 148 153 
3 236 153 254 
3 236 254 255 
3 149 148 157 
3 149 157 256 
3 149 256 257 
3 149 257 258 
