ply
format ascii 1.0
comment VCGLIB generated
element vertex 8
property float x
property float y
property float z
property float nx
property float ny
property float nz
property uchar red
property uchar green
property uchar blue
property uchar alpha
property float texture_u
property float texture_v
element face 12
property list uchar int vertex_indices
end_header
-12.69569 -0.3875316 14.06752 0.3333333 -0.6666667 -0.6666667 255 255 255 255 0 0
-12.69569 -0.3875327 -11.90368 0.8164966 -0.4082483 0.4082483 255 255 255 255 0 1
13.27551 -0.3875327 -11.90368 -0.3333333 -0.6666667 0.6666667 255 255 255 255 1 1
13.27551 -0.3875316 14.06752 -0.8164966 -0.4082483 -0.4082483 255 255 255 255 1 0
-12.69569 -2.544374 14.06752 0.6666667 0.6666667 -0.3333334 255 255 255 255 0 0
13.27551 -2.544374 14.06752 -0.4082483 0.4082483 -0.8164966 255 255 255 255 1 0
13.27551 -2.544375 -11.90368 -0.6666667 0.6666667 0.3333333 255 255 255 255 1 1
-12.69569 -2.544375 -11.90368 0.4082483 0.4082483 0.8164966 255 255 255 255 0 1
3 0 1 2 
3 0 2 3 
3 4 5 6 
3 4 6 7 
3 3 2 6 
3 3 6 5 
3 1 0 4 
3 1 4 7 
3 2 1 7 
3 2 7 6 
3 0 3 5 
3 0 5 4 
